<?xml version="1.0" encoding="UTF-8" standalone="no"?>
<!--Generator: Adobe Illustrator 22.1.0, SVG Export Plug-In . SVG Version: 6.00 Build 0)-->
<svg xmlns:dc="http://purl.org/dc/elements/1.1/" xmlns:cc="http://creativecommons.org/ns#" xmlns:rdf="http://www.w3.org/1999/02/22-rdf-syntax-ns#" xmlns:svg="http://www.w3.org/2000/svg" xmlns="http://www.w3.org/2000/svg" xmlns:sodipodi="http://sodipodi.sourceforge.net/DTD/sodipodi-0.dtd" xmlns:inkscape="http://www.inkscape.org/namespaces/inkscape" version="1.1" id="Layer_3" x="0px" y="0px" viewBox="0 0 100 100" style="enable-background:new 0 0 100 100" xml:space="preserve" width="256px" height="256px" sodipodi:docname="npm-pack-here-icon.svg" inkscape:version="0.92.3 (2405546, 2018-03-11)">
    <metadata id="metadata33">
        <rdf:RDF>
            <cc:Work rdf:about="">
                <dc:format>
                    image/svg+xml
                </dc:format>
                <dc:type rdf:resource="http://purl.org/dc/dcmitype/StillImage"/>
                <dc:title/>
                <cc:license rdf:resource=""/>
            </cc:Work>
        </rdf:RDF>
    </metadata>
    <defs id="defs31"/>
    <sodipodi:namedview pagecolor="#ffffff" bordercolor="#666666" borderopacity="1" objecttolerance="10" gridtolerance="10" guidetolerance="10" inkscape:pageopacity="0" inkscape:pageshadow="2" inkscape:window-width="2560" inkscape:window-height="1537" id="namedview29" showgrid="true" inkscape:zoom="2" inkscape:cx="174.69739" inkscape:cy="128.2298" inkscape:window-x="1912" inkscape:window-y="-8" inkscape:window-maximized="1" inkscape:current-layer="Layer_3"/>
    <path id="path4684" d="m 73.627836,23.356361 h 2.342435 c 5.17441,0 9.36968,4.19528 9.36968,9.36969 v 43.33481 c 0,5.174409 -4.195269,9.36969 -9.36968,9.36969 H 32.635446 c -5.17441,0 -9.369689,-4.19528 -9.369689,-9.36969 V 73.71844 L 22.705456,23.61732 Z" style="opacity:1;fill:#89aabc;fill-opacity:1;stroke:none;stroke-width:2.34242225;stroke-linecap:round;stroke-linejoin:round;stroke-miterlimit:10" inkscape:connector-curvature="0"/>
    <path style="fill:none;stroke:#000000;stroke-width:2.34242225;stroke-linecap:round;stroke-linejoin:round;stroke-miterlimit:10" d="m 73.627836,23.356361 h 2.342435 c 5.17441,0 9.36968,4.19528 9.36968,9.36969 v 43.33481 c 0,5.174409 -4.195269,9.36969 -9.36968,9.36969 H 32.635446 c -5.17441,0 -9.369689,-4.19528 -9.369689,-9.36969 V 73.71844" id="path4686" inkscape:connector-curvature="0"/>
    <path style="fill:#b74c4b;fill-opacity:1;stroke:#000000;stroke-width:2.34242225;stroke-linecap:round;stroke-linejoin:round;stroke-miterlimit:10" d="M 68.009686,77.698721 H 24.674877 c -5.17441,0 -9.36969,-4.19527 -9.36969,-9.36969 v -43.33481 c 0,-5.17441 4.19528,-9.36969 9.36969,-9.36969 h 43.334809 c 5.17441,0 9.369695,4.19528 9.369695,9.36969 v 43.33481 c 0,5.174419 -4.195285,9.36969 -9.369695,9.36969 z" id="path4688" inkscape:connector-curvature="0"/>
    <path style="fill:#f7f7f7;fill-opacity:1;stroke:none;stroke-width:1.17121112;stroke-linecap:round;stroke-miterlimit:10" d="m 25.146426,20.895201 c -2.57667,0 -4.68495,2.10829 -4.68495,4.68495 v 20.49566 21.66801 c 0,2.57667 2.10828,4.68406 4.68495,4.68406 h 8.198441 33.965229 c 2.57667,0 4.684061,-2.10739 4.684061,-4.68406 v -20.49655 -21.66712 c 0,-2.57667 -2.10739,-4.68495 -4.684061,-4.68495 h -8.198439 z" id="path4690" inkscape:connector-curvature="0"/>
    <path inkscape:connector-curvature="0" id="path4692" d="m 25.260327,20.895201 c -0.32208,0 -0.63647,0.0327 -0.9407,0.0954 -0.91254,0.188 -1.73062,0.64358 -2.36741,1.28022 -0.106281,0.10626 -0.20785,0.21745 -0.303651,0.3334 -0.0957,0.11581 -0.18567,0.2362 -0.27008,0.36087 -0.0844,0.12467 -0.162639,0.25331 -0.23498,0.38605 -0.36191,0.6638 -0.56763,1.4231 -0.56763,2.22854 v 20.49637 21.66748 c 0,2.57667 2.10778,4.68445 4.68445,4.68445 h 8.19855 33.9653 c 0.32208,0 0.63646,-0.0327 0.9407,-0.0954 1.21696,-0.25071 2.26586,-0.97713 2.94113,-1.97449 0.16882,-0.24934 0.314401,-0.51575 0.43335,-0.79574 0.23791,-0.55999 0.36927,-1.17468 0.36927,-1.81885 v -20.49637 -21.66748 c 0,-2.57666 -2.107789,-4.68445 -4.684449,-4.68445 h -8.19855 z" style="fill:none;fill-opacity:0.98994978;stroke:#000000;stroke-width:1.17121124;stroke-linecap:round;stroke-miterlimit:10"/>
    <path style="fill:#b74c4b;fill-opacity:1;stroke-width:1.46698451" sodipodi:nodetypes="sccscccccccccs" inkscape:connector-curvature="0" id="path4694" d="m 46.014606,67.113961 c -0.878839,0 -1.72106,-0.35297 -2.37033,-0.99473 l -15.35305,-15.31005 c -0.6718,-0.66011 -1.08023,-1.59983 -1.12389,-2.61902 -0.0437,-1.01918 0.27886,-1.99711 0.91123,-2.75195 1.3098,-1.55705 3.5407,-1.66859 4.97303,-0.25518 l 12.92639,12.86064 12.75743,-12.81109 c 0.70138,-0.71663 1.61684,-1.06349 2.53229,-1.05891 0.94081,0.029 1.81401,0.45382 2.46046,1.19644 0.64646,0.74108 0.98729,1.71137 0.96053,2.73209 -0.0268,1.01918 -0.4183,1.96808 -1.10277,2.66944 l -15.13903,15.28494 c -0.6718,0.6876 -1.52952,1.05738 -2.43229,1.05738 z"/>
    <path d="m 46.014606,67.113961 c -0.878839,0 -1.72106,-0.35297 -2.37033,-0.99473 l -15.35305,-15.31005 c -0.6718,-0.66011 -1.08023,-1.59983 -1.12389,-2.61902 -0.0437,-1.01918 0.27886,-1.99711 0.91123,-2.75195 1.3098,-1.55705 3.5407,-1.66859 4.97303,-0.25518 l 12.92639,12.86064 12.75743,-12.81109 c 0.70138,-0.71663 1.61684,-1.06349 2.53229,-1.05891 0.94081,0.029 1.81401,0.45382 2.46046,1.19644 0.64646,0.74108 0.98729,1.71137 0.96053,2.73209 -0.0268,1.01918 -0.4183,1.96808 -1.10277,2.66944 l -15.13903,15.28494 c -0.6718,0.6876 -1.52952,1.05738 -2.43229,1.05738 z m -15.31784,-21.39918 c -0.57603,0 -1.15488,0.25212 -1.57599,0.75331 -0.37886,0.45229 -0.57322,1.03905 -0.54646,1.65025 0.0268,0.61121 0.27041,1.17505 0.6873,1.58608 l 15.35586,15.31158 c 0.74082,0.72886 2.06893,0.73956 2.84777,-0.055 l 15.13903,-15.28494 c 0.42533,-0.43548 0.66053,-1.00391 0.67602,-1.61664 0.0155,-0.6112 -0.18872,-1.19338 -0.57603,-1.63803 -0.38731,-0.44618 -0.91264,-0.69983 -1.4774,-0.71817 -0.55209,-0.029 -1.09855,0.20323 -1.50839,0.62496 l -13.24192,13.33825 c -0.13239,0.14364 -0.31266,0.22462 -0.49857,0.22462 h -0.001 c -0.18732,0 -0.36759,-0.0825 -0.49857,-0.22615 l -13.39962,-13.38016 c -0.38731,-0.38048 -0.88306,-0.56995 -1.38163,-0.56995 z" id="path4696" inkscape:connector-curvature="0" sodipodi:nodetypes="sccscccccccccsscscccccccccssccs" style="stroke-width:1.46698451"/>
    <path sodipodi:nodetypes="cszsszsc" inkscape:connector-curvature="0" id="path4698" d="m 42.194707,29.353861 c 0.0131,6.45163 0.0337,13.37798 0.0322,19.8903 -5e-4,2.33156 1.62962,3.6944 3.64948,3.67596 2.01986,-0.0185 3.75414,-1.39801 3.76457,-3.6905 0.0293,-6.44723 -0.0336,-14.07613 -0.0351,-19.901 -5.5e-4,-2.10597 -1.84218,-3.07297 -3.696351,-3.03703 -1.85416,0.0359 -3.71871,1.11818 -3.714779,3.06227 z" style="fill:#b74c4b;fill-opacity:1;stroke-width:1.4164176"/>
    <path style="stroke-width:1.4164176" d="m 42.194707,29.353861 c 0.0131,6.45163 0.0336,13.37798 0.0322,19.8903 -5.1e-4,2.33156 1.62962,3.6944 3.64948,3.67596 2.01986,-0.0185 3.754129,-1.39801 3.76456,-3.6905 0.0293,-6.44723 -0.0336,-14.07613 -0.0351,-19.901 -5.4e-4,-2.10597 -1.84218,-3.07297 -3.69634,-3.03703 -1.85417,0.0359 -3.71872,1.11818 -3.71478,3.06227 z m 5.85781,0.12988 0.0696,19.79309 c 0.005,1.36188 -1.22253,2.19682 -2.2295,2.20134 -1.15897,0.005 -2.188811,-1.14639 -2.18972,-2.2235 l -0.0168,-19.81228 c 0.0423,-1.3067 1.27779,-1.69635 2.21995,-1.70649 0.94215,-0.0101 2.12665,0.56839 2.146471,1.74784 z" id="path4700" inkscape:connector-curvature="0" sodipodi:nodetypes="cszsszscczsszccc"/>
</svg>
